<svg width="77" height="72" viewBox="0 0 77 72" fill="none" xmlns="http://www.w3.org/2000/svg">
<g clip-path="url(#clip0_32_342)">
<path d="M64.3131 46.9475C63.9331 46.5674 63.5531 46.3141 63.1604 46.3141C62.7677 46.3141 62.261 46.5674 62.0076 46.8208C61.3742 47.4542 61.3742 48.4802 62.0076 49.1263C62.3877 49.5063 62.7677 49.633 63.1604 49.633C63.5531 49.633 63.9204 49.5063 64.3131 49.253C64.6931 48.8729 64.8198 48.4929 64.8198 48.1002C64.8198 47.7075 64.5665 47.2008 64.3131 46.9475Z" fill="#2B9D68"/>
<path d="M64.3131 51.6725C63.9331 51.4191 63.5531 51.1658 63.1604 51.1658C62.7677 51.1658 62.261 51.4191 62.0076 51.6725C61.3742 52.3058 61.3742 53.3319 62.0076 53.9653C62.3877 54.3453 62.7677 54.472 63.1604 54.472C63.5531 54.472 64.0598 54.2186 64.3131 53.9653C64.6931 53.5853 64.8198 53.2052 64.8198 52.8126C64.8198 52.4199 64.5665 51.9132 64.3131 51.6598V51.6725Z" fill="#2B9D68"/>
<path d="M63.1604 56.0174C62.7803 56.0174 62.261 56.2708 62.0076 56.5241C61.3742 57.1575 61.3742 58.1836 62.0076 58.817C62.3877 59.197 62.7677 59.3237 63.1604 59.3237C63.5531 59.3237 64.0598 59.0703 64.3131 58.817C64.6931 58.4369 64.8198 58.0569 64.8198 57.6642C64.8198 57.2715 64.5665 56.7648 64.3131 56.5115C63.9331 56.1314 63.5531 56.0048 63.1604 56.0048V56.0174Z" fill="#2B9D68"/>
<path d="M65.0732 37.4974C64.8199 37.3708 64.6932 37.2441 64.4399 37.1174C64.1865 36.9907 63.9332 36.9907 63.6671 36.8641L63.4138 36.7374V35.5846C63.5405 35.5846 63.7938 35.7113 63.9205 35.7113C64.0472 35.7113 64.1738 35.838 64.3005 35.838C64.5539 35.838 64.5539 35.9647 64.6806 35.9647C64.6806 36.0913 64.8072 36.0913 64.8072 36.0913L65.4406 34.9386C65.1873 34.8119 64.9339 34.6852 64.5412 34.5586C64.2879 34.4319 63.9078 34.3052 63.5151 34.3052V33.5452H62.8818V34.4446C62.6284 34.4446 62.3751 34.4446 62.1217 34.5712C61.8684 34.5712 61.7417 34.6979 61.4883 34.8246C61.3617 35.0779 61.235 35.2046 61.1083 35.458C60.9816 35.7113 60.9816 35.9647 60.9816 36.218C60.9816 36.4714 60.9816 36.7247 61.1083 36.8514C61.1083 37.1047 61.235 37.2314 61.3616 37.3581C61.4883 37.4848 61.615 37.6114 61.8684 37.7381C62.1217 37.8648 62.3751 37.8648 62.6284 37.9915L63.0084 38.1182V39.3976C62.7551 39.3976 62.6284 39.3976 62.3751 39.2709C62.2484 39.1442 61.995 39.1442 61.8684 39.0175C61.7417 38.8909 61.615 38.8909 61.4883 38.7642L61.3616 38.6375L60.7283 39.9169C60.9816 40.1703 61.3617 40.297 61.7543 40.4236C62.1344 40.5503 62.5144 40.677 62.9071 40.677V41.7031H63.5405V40.677C63.7938 40.677 64.0472 40.677 64.3005 40.5503C64.5539 40.4236 64.6805 40.297 64.9339 40.1703C65.1872 40.0436 65.3139 39.9169 65.4406 39.6636C65.5673 39.4102 65.5673 39.1569 65.5673 38.7642C65.5673 38.3715 65.5673 38.2575 65.4406 38.0041C65.3139 37.7508 65.1873 37.6241 65.0606 37.4974H65.0732ZM63.0338 36.7247C62.7804 36.598 62.6537 36.598 62.5271 36.4714C62.4004 36.3447 62.4004 36.218 62.4004 36.0913C62.4004 35.838 62.6537 35.5846 63.0338 35.5846V36.7374V36.7247ZM63.4138 39.2836V38.1308C63.6671 38.2575 63.7938 38.2575 63.9205 38.3842C64.0472 38.5108 64.0472 38.6375 64.0472 38.7642C64.0472 39.1442 63.7938 39.2709 63.4138 39.2709V39.2836Z" fill="#2B9D68"/>
<path d="M45.1597 26.7681C44.7797 26.5147 44.3996 26.2614 44.0069 26.2614C43.6142 26.2614 43.1075 26.5147 42.8542 26.7681C42.2208 27.4014 42.2208 28.4275 42.8542 29.0735C43.2342 29.4536 43.6142 29.5803 44.0069 29.5803C44.3996 29.5803 44.9063 29.3269 45.1597 29.0735C45.5397 28.6935 45.6664 28.3135 45.6664 27.9208C45.6664 27.5281 45.413 27.0214 45.1597 26.7681Z" fill="#2B9D68"/>
<path d="M45.1597 31.6197C44.7797 31.2397 44.3996 30.9863 44.0069 30.9863C43.6142 30.9863 43.1075 31.2397 42.8542 31.493C42.2208 32.1264 42.2208 33.1525 42.8542 33.7859C43.2342 34.1659 43.6142 34.2926 44.0069 34.2926C44.3996 34.2926 44.767 34.1659 45.1597 33.9125C45.5397 33.5325 45.6664 33.1525 45.6664 32.7598C45.6664 32.3671 45.413 31.8604 45.1597 31.607V31.6197Z" fill="#2B9D68"/>
<path d="M44.0069 35.838C43.6269 35.838 43.1075 36.0913 42.8542 36.3447C42.2208 36.9781 42.2208 38.0041 42.8542 38.6375C43.2342 39.0175 43.6142 39.1442 44.0069 39.1442C44.3996 39.1442 44.9063 38.8909 45.1597 38.6375C45.5397 38.2575 45.6664 37.8775 45.6664 37.4848C45.6664 37.0921 45.413 36.5854 45.1597 36.332C44.7797 36.0787 44.3996 35.8253 44.0069 35.8253V35.838Z" fill="#2B9D68"/>
<path d="M43.2344 19.1042C43.1078 18.9776 42.8544 18.9776 42.7277 18.8509C42.601 18.7242 42.4744 18.7242 42.3477 18.5975L42.221 18.4709L41.5876 19.7503C41.841 20.0036 42.221 20.1303 42.6137 20.257C42.9937 20.3837 43.3864 20.5103 43.7665 20.5103V21.5364H44.3998V20.5103C44.6532 20.5103 44.9065 20.5103 45.1599 20.3837C45.4132 20.257 45.5399 20.1303 45.7933 20.0036C46.0466 19.877 46.1733 19.7503 46.3 19.4969C46.4266 19.2436 46.4267 18.9902 46.4267 18.5975C46.4267 18.2048 46.4266 18.0908 46.3 17.8375C46.1733 17.5841 46.0466 17.4575 45.9199 17.3308C45.6666 17.2041 45.5399 17.0774 45.2866 16.9508C45.0332 16.8241 44.7799 16.8241 44.5265 16.6974L44.2732 16.5707V15.418C44.3998 15.418 44.6532 15.5447 44.7799 15.5447C44.9065 15.5447 45.0332 15.6713 45.1599 15.6713C45.4132 15.6713 45.4132 15.798 45.5399 15.798C45.5399 15.9247 45.6666 15.9247 45.6666 15.9247L46.3 14.7719C46.0466 14.6453 45.7933 14.5186 45.4006 14.3919C45.1472 14.2652 44.7672 14.2652 44.3745 14.2652V13.3658H43.7411V14.2652C43.4878 14.2652 43.2344 14.2652 42.9811 14.3919C42.7277 14.5186 42.4744 14.5186 42.3477 14.7719C42.221 15.0253 42.0943 15.152 41.9677 15.4053C41.841 15.6587 41.841 15.912 41.841 16.1654C41.841 16.4187 41.841 16.6721 41.9677 16.7988C41.9677 17.0521 42.0943 17.1788 42.221 17.3055C42.3477 17.4321 42.4744 17.5588 42.7277 17.6855C42.9811 17.8122 43.2344 17.8122 43.4878 17.9388L43.8678 18.0655V19.2183C43.6145 19.2183 43.4878 19.2183 43.2344 19.0916V19.1042ZM44.2605 17.9515C44.5138 18.0782 44.6405 18.0782 44.7672 18.2048C44.8939 18.3315 44.8939 18.4582 44.8939 18.5849C44.8939 18.9649 44.6405 19.0916 44.2605 19.0916V17.9388V17.9515ZM43.3738 16.4187C43.2471 16.292 43.2471 16.1654 43.2471 16.0387C43.2471 15.7853 43.5004 15.532 43.8805 15.532V16.5581C43.6271 16.4314 43.5004 16.4314 43.3738 16.4314V16.4187Z" fill="#2B9D68"/>
<path d="M44.007 25.362C48.352 25.362 52.0509 21.7897 52.0509 17.3181C52.0509 12.8464 48.4787 9.27417 44.007 9.27417C39.5354 9.27417 35.9631 12.8464 35.9631 17.3181C35.9631 21.7897 39.6621 25.362 44.007 25.362ZM44.007 12.5931C46.6926 12.5931 48.8587 14.7592 48.8587 17.4447C48.8587 20.1303 46.6926 22.2964 44.007 22.2964C41.3215 22.2964 39.1554 20.1303 39.1554 17.4447C39.1554 14.7592 41.3215 12.5931 44.007 12.5931Z" fill="#2B9D68"/>
<path d="M74.4094 59.7165H52.3172V53.4587C52.3172 53.1547 52.2032 52.8887 52.0638 52.648V45.4148C52.0638 44.5154 51.3038 43.7554 50.4044 43.7554H44.818C44.9573 43.6794 45.084 43.5907 45.1727 43.502C45.5527 43.122 45.6794 42.742 45.6794 42.3493C45.6794 41.9566 45.426 41.4499 45.1727 41.1965C44.7927 40.8165 44.4126 40.6898 44.0199 40.6898C43.6272 40.6898 43.1205 40.9432 42.8672 41.1965C42.2338 41.8299 42.2338 42.856 42.8672 43.4894C42.9685 43.5907 43.0699 43.6794 43.1839 43.7427H28.1855V29.4411C28.1855 28.5417 27.4128 27.7816 26.5261 27.7816H16.5694V17.1789C20.395 17.1789 23.5872 15.8995 26.0194 13.4799C28.8315 10.7944 30.111 6.71548 29.5916 2.24383C29.4649 1.48378 28.9582 0.964411 28.1855 0.837735C27.6788 0.71106 27.0328 0.71106 26.3994 0.71106C22.5738 0.71106 19.3689 1.99048 16.9494 4.40998C16.088 5.23338 15.3786 6.20878 14.8212 7.27285C14.2765 6.23411 13.5925 5.25871 12.7438 4.40998C10.2863 1.99048 7.09403 0.71106 3.26843 0.71106C2.76173 0.71106 2.11569 0.71106 1.48231 0.837735C0.709587 0.964411 0.202885 1.47111 0.0762098 2.24383C-0.303817 6.71548 0.836263 10.6678 3.64846 13.4799C6.08063 15.9121 9.27285 17.1789 13.0985 17.1789C13.1365 17.1789 13.1871 17.1789 13.2251 17.1789V27.7816H2.49571C1.59632 27.7816 0.836263 28.5417 0.836263 29.4411V69.4199C0.836263 70.3192 1.60898 71.0793 2.49571 71.0793H74.3967C75.1568 71.0793 75.9295 70.3192 76.0562 69.4199V61.376C76.0562 60.4766 75.2835 59.7165 74.3967 59.7165H74.4094ZM19.1029 6.71548C20.889 4.92935 23.4478 4.02996 26.3867 4.02996C26.3867 6.96883 25.4873 9.52767 23.7012 11.3138C21.9151 13.0999 19.3562 13.9993 16.4173 13.9993C16.4173 11.0604 17.3167 8.5016 19.1029 6.71548ZM5.94129 11.3138C4.15516 9.52767 3.25576 6.96883 3.25576 4.02996C6.19464 3.90328 8.75348 4.92935 10.5396 6.71548C12.3257 8.5016 13.2251 11.0604 13.2251 13.9993C10.2863 13.9993 7.72741 13.0999 5.94129 11.3138ZM4.15516 47.0743H24.8413V51.7993H4.15516V47.0743ZM24.8539 43.7554H4.15516V39.1571H24.8413V43.7554H24.8539ZM4.15516 55.1182H24.8413V59.8432H4.15516V55.1182ZM28.1728 55.1182H48.9856V59.8432H28.1728V55.1182ZM48.8589 51.926H28.0462V47.0743H48.8589V51.926ZM4.15516 31.1132H24.8413V35.9649H4.15516V31.1132ZM4.15516 63.0354H24.8413V67.7604H4.15516V63.0354ZM28.1728 63.0354H48.7323V67.7604H28.1728V63.0354ZM72.8766 67.8871H52.0638V63.0354H72.8766V67.8871Z" fill="#2B9D68"/>
<path d="M71.2042 37.4975C71.2042 33.0259 67.632 29.4536 63.1604 29.4536C58.6887 29.4536 55.1165 33.0259 55.1165 37.4975C55.1165 41.9692 58.8154 45.5414 63.1604 45.5414C67.5053 45.5414 71.2042 41.9692 71.2042 37.4975ZM63.1604 42.4759C60.4748 42.4759 58.3087 40.3097 58.3087 37.6242C58.3087 34.9387 60.4748 32.7725 63.1604 32.7725C65.8459 32.7725 68.012 34.9387 68.012 37.6242C68.012 40.3097 65.8459 42.4759 63.1604 42.4759Z" fill="#2B9D68"/>
<path d="M47.1992 4.02984H59.2081C59.5881 4.02984 59.9681 4.40986 59.9681 4.78989C59.9681 5.81596 60.3482 6.82936 61.1209 7.60208C61.8936 8.36214 62.907 8.75483 63.9331 8.75483H69.5575C70.4569 8.75483 71.2169 7.98211 71.2169 7.09538C71.2169 6.20865 70.4569 5.43593 69.5575 5.43593H63.9331C63.6797 5.43593 63.553 5.30926 63.4264 5.18258C63.2997 5.05591 63.173 4.92923 63.173 4.67588C63.173 2.50973 61.3869 0.710938 59.2081 0.710938H47.1992C46.2998 0.710938 45.5398 1.47099 45.5398 2.37039C45.5398 3.26978 46.3125 4.02984 47.1992 4.02984Z" fill="#2B9D68"/>
</g>
<defs>
<clipPath id="clip0_32_342">
<rect width="76.0686" height="70.3682" fill="white" transform="translate(0 0.710938)"/>
</clipPath>
</defs>
</svg>
