<svg width="149" height="149" viewBox="0 0 149 149" fill="none" xmlns="http://www.w3.org/2000/svg">
<g clip-path="url(#clip0_381_23)">
<g filter="url(#filter0_d_381_23)">
<path d="M125 6H16C10.4772 6 6 10.4772 6 16V125C6 130.523 10.4772 135 16 135H125C130.523 135 135 130.523 135 125V16C135 10.4772 130.523 6 125 6Z" fill="#E0A038"/>
</g>
<mask id="mask0_381_23" style="mask-type:luminance" maskUnits="userSpaceOnUse" x="24" y="23" width="93" height="94">
<path d="M117 23H24V117H117V23Z" fill="white"/>
</mask>
<g mask="url(#mask0_381_23)">
<path d="M70.4919 38.6693V37.3582C70.8156 37.3582 71.1392 37.3582 71.479 37.1963C71.8027 37.0344 71.9645 36.8726 72.2882 36.7107C72.6118 36.5488 72.7736 36.387 72.9354 36.0632C73.0973 35.7395 73.0973 35.4156 73.0973 34.9138C73.0973 34.412 73.0973 34.2663 72.9354 33.9426C72.7736 33.6188 72.6118 33.457 72.45 33.2952C72.1263 33.1333 71.9645 32.9714 71.6409 32.8095C71.3172 32.6477 70.9936 32.6477 70.6699 32.4858L70.3463 32.3238V30.8509C70.5081 30.8509 70.8317 31.0126 70.9936 31.0126C71.1554 31.0126 71.3172 31.1746 71.479 31.1746C71.8027 31.1746 71.8027 31.3365 71.9645 31.3365C71.9645 31.4984 72.1263 31.4984 72.1263 31.4984L72.9354 30.0252C72.6118 29.8633 72.2882 29.7015 71.7865 29.5396C71.4629 29.3777 70.9774 29.216 70.4757 29.216V28.0667H69.6666V29.216C69.343 29.216 69.0193 29.216 68.6957 29.3778C68.372 29.5397 68.0484 29.7015 67.8866 29.8633C67.7247 30.1871 67.5629 30.3491 67.4011 30.6728C67.2393 30.9966 67.2393 31.3203 67.2393 31.6602C67.2393 32.0002 67.2393 32.3077 67.4011 32.4696C67.4011 32.7934 67.5629 32.9552 67.7247 33.1171C67.8866 33.279 68.0484 33.4408 68.372 33.6026C68.6957 33.7645 69.0193 33.7645 69.3591 33.9264L69.8446 34.0882V35.7233C69.521 35.7233 69.3591 35.7233 69.0355 35.5614C68.8737 35.3995 68.55 35.3995 68.3882 35.2377C68.2264 35.0758 68.0646 35.0757 67.9027 34.9138L67.7409 34.7519L66.9318 36.387C67.2554 36.7107 67.7409 36.8726 68.2426 37.0344C68.728 37.1963 69.2135 37.3582 69.7152 37.3582V38.6693H70.5243H70.4919ZM70.3301 34.1045C70.6537 34.2664 70.8156 34.2663 70.9774 34.4282C71.1392 34.5901 71.1392 34.7519 71.1392 34.9138C71.1392 35.3994 70.8156 35.5614 70.3301 35.5614V34.0882V34.1045ZM69.1973 31.9678C69.1973 31.8059 69.0355 31.6441 69.0355 31.4822C69.0355 31.1584 69.3591 30.8347 69.8446 30.8347V32.3077C69.521 32.1459 69.3591 32.1458 69.1973 31.9839V31.9678Z" fill="white"/>
<path d="M114.718 74.2491C113.084 72.776 111.126 71.9667 109.006 71.9667C106.886 71.9667 104.766 72.776 103.294 74.2491L87.4672 90.0803C86.9817 89.1091 86.4801 88.2835 85.671 87.4742C84.522 86.3248 82.9038 85.5155 81.1075 85.3536L72.1425 84.3662V80.287H78.1785C81.4474 80.287 84.5382 78.9758 86.8199 76.6934C89.1016 74.4109 90.4124 71.303 90.4124 68.0493C90.4124 66.9 89.4253 65.9288 88.2925 65.9288H80.1366C77.1752 65.9288 74.3433 67.0133 72.1425 68.9234V59.8909H78.1785C81.4474 59.8909 84.5382 58.5797 86.8199 56.2973C89.1016 54.0149 90.4124 50.9069 90.4124 47.6532C90.4124 46.5039 89.4253 45.5327 88.2925 45.5327H80.1366C77.1752 45.5327 74.3433 46.6172 72.1425 48.5274V43.3474C76.7221 42.36 80.2984 38.2646 80.2984 33.295C80.2984 27.5809 75.735 23.0161 70.0226 23.0161C64.3102 23.0161 59.7468 27.5809 59.7468 33.295C59.7468 38.2646 63.3231 42.36 67.9027 43.3474V62.6913C65.7505 60.8459 62.9509 59.729 59.9086 59.729H51.7527C50.6038 59.729 49.6329 60.7164 49.6329 61.8496C49.6329 68.5349 55.1834 74.0872 61.8667 74.0872H67.9027V83.8967L42.2861 81.0963C41.6388 81.0963 41.1371 81.2582 40.6516 81.7438L24.6473 97.7531C24.1618 98.2387 24 98.7405 24 99.2262C24 99.7118 24.3236 100.376 24.6473 100.699L40.3118 116.369C40.7973 116.854 41.2828 117.016 41.7844 117.016C42.1081 117.016 42.5935 116.854 43.0952 116.692L48.8076 112.775L85.5253 114.086C86.0108 114.086 86.6581 113.763 86.9979 113.439L114.734 85.6935C116.207 84.0586 117.016 82.0999 117.016 79.9794C117.016 77.8589 116.207 75.7383 114.734 74.2653L114.718 74.2491ZM74.408 52.0562C75.8806 50.4213 78.0005 49.6119 80.1204 49.6119H85.9946C85.671 51.085 84.8457 52.3799 83.8747 53.3674C82.4021 55.0023 80.2822 55.8117 78.1623 55.8117H72.2882C72.6118 54.3386 73.4371 53.0436 74.408 52.0562ZM61.8505 70.1699C58.0962 70.1699 54.9892 67.5637 54.0183 63.9701H59.8925C63.6468 63.9701 66.7376 66.5763 67.7247 70.1699H61.8505ZM74.408 72.4523C75.8806 70.8173 78.0005 70.008 80.1204 70.008H85.9946C85.671 71.481 84.8457 72.776 83.8747 73.7634C82.4021 75.3984 80.2822 76.2077 78.1623 76.2077H72.2882C72.6118 74.7347 73.4371 73.4397 74.408 72.4523ZM63.8086 33.4407C63.8086 30.009 66.5758 27.241 70.0064 27.241C73.4371 27.241 76.2043 30.009 76.2043 33.4407C76.2043 36.8725 73.4371 39.6405 70.0064 39.6405C66.5758 39.6405 63.8086 36.8725 63.8086 33.4407ZM111.611 82.8931L84.522 109.991L48.9856 108.712L40.15 99.8737C39.3409 99.0643 38.0301 99.0643 37.221 99.8737C36.4119 100.683 36.4119 101.994 37.221 102.82L44.7943 110.396L41.9624 112.289L28.9033 99.2262L42.7715 85.5155L70.0064 88.4454C70.0064 88.4454 70.0064 88.4454 70.0226 88.4454L80.6221 89.5947C81.4312 89.5947 82.2565 89.9184 82.742 90.5821C83.2274 91.2296 83.5511 91.8933 83.7129 92.7027C83.7129 93.1883 83.7129 93.512 83.5511 94.0138C83.3892 94.1757 83.2274 94.4995 83.2274 94.8232C82.5801 95.7944 81.4312 96.4581 80.1366 96.4581L58.7597 95.4869C57.6108 95.4869 56.6398 96.2963 56.6398 97.4456C56.6398 98.5949 57.4489 99.5661 58.5979 99.5661L80.1366 100.537C83.2274 100.699 86.0108 98.9024 87.3216 96.1344L106.077 77.3732C106.724 76.7257 107.873 76.2239 108.844 76.2239C109.815 76.2239 110.802 76.5477 111.611 77.3732C112.259 78.0207 112.76 79.17 112.76 80.1413C112.76 81.1125 112.437 82.0999 111.611 82.9093V82.8931Z" fill="white"/>
</g>
</g>
<defs>
<filter id="filter0_d_381_23" x="0" y="0" width="149" height="149" filterUnits="userSpaceOnUse" color-interpolation-filters="sRGB">
<feFlood flood-opacity="0" result="BackgroundImageFix"/>
<feColorMatrix in="SourceAlpha" type="matrix" values="0 0 0 0 0 0 0 0 0 0 0 0 0 0 0 0 0 0 127 0" result="hardAlpha"/>
<feOffset dx="4" dy="4"/>
<feGaussianBlur stdDeviation="5"/>
<feComposite in2="hardAlpha" operator="out"/>
<feColorMatrix type="matrix" values="0 0 0 0 0 0 0 0 0 0 0 0 0 0 0 0 0 0 0.15 0"/>
<feBlend mode="normal" in2="BackgroundImageFix" result="effect1_dropShadow_381_23"/>
<feBlend mode="normal" in="SourceGraphic" in2="effect1_dropShadow_381_23" result="shape"/>
</filter>
<clipPath id="clip0_381_23">
<rect width="149" height="149" fill="white"/>
</clipPath>
</defs>
</svg>
