<svg width="399" height="92" viewBox="0 0 399 92" fill="none" xmlns="http://www.w3.org/2000/svg">
<g clip-path="url(#clip0_36_378)">
<path d="M10.41 8.9039L60.3861 64.2315V9.77232C51.6351 3.62015 41.0177 0 29.5502 0C18.0826 0 8.48142 3.27488 0 8.9039H10.41Z" fill="url(#paint0_linear_36_378)"/>
<path d="M49.9761 83.0961L0 27.7684V82.2277C8.74063 88.3798 19.3683 92.0105 30.8359 92.0105C42.3034 92.0105 51.8943 88.7356 60.3861 83.1066H49.9761V83.0961Z" fill="url(#paint1_linear_36_378)"/>
<path d="M105.51 81.7673V10.85H107.023L153.754 65.1314V10.85H160.67V81.7673H159.063L112.809 28.1556V81.7673H105.51Z" fill="black"/>
<path d="M206.457 10.6617L239.201 81.579H231.715L220.672 58.1945H190.345L179.396 81.579H171.526L204.746 10.6617H206.457ZM205.597 25.6759L193.466 51.4041H217.541L205.597 25.6759Z" fill="black"/>
<path d="M244.271 67.4227L250.243 63.7921C254.443 71.6079 259.295 75.5105 264.79 75.5105C267.165 75.5105 269.384 74.956 271.478 73.8365C273.562 72.7169 275.138 71.2417 276.216 69.3897C277.284 67.5378 277.824 65.5603 277.824 63.4573C277.824 61.1032 277.036 58.7699 275.449 56.4786C273.241 53.3188 269.207 50.1067 263.37 46.8213C257.491 42.3537 253.862 39.1207 252.473 37.1118C249.974 33.7951 248.73 30.1749 248.73 26.2513C248.73 23.1543 249.455 20.3503 250.907 17.8392C252.359 15.3176 254.422 13.3192 257.087 11.8335C259.751 10.3478 262.654 9.60492 265.786 9.60492C269.073 9.60492 272.152 10.4419 275.024 12.116C277.896 13.7901 280.944 16.8452 284.169 21.271L278.435 25.6236C275.812 22.1185 273.572 19.7958 271.706 18.6658C269.84 17.5358 267.808 16.9708 265.589 16.9708C262.779 16.9708 260.467 17.8392 258.673 19.576C256.869 21.3129 255.977 23.4473 255.977 25.9584C255.977 27.486 256.288 28.9926 256.921 30.4574C257.553 31.9222 258.725 33.4916 260.425 35.1448C261.338 36.0655 264.376 38.4406 269.529 42.27C275.594 46.8004 279.762 50.5461 282.012 53.5071C284.273 56.4681 285.403 59.7221 285.403 63.2585C285.403 68.4272 283.464 72.9053 279.597 76.6928C275.729 80.4909 271.022 82.3846 265.495 82.3846C261.203 82.3846 257.315 81.2337 253.841 78.9423C250.368 76.651 247.174 72.8006 244.271 67.4123V67.4227Z" fill="black"/>
<path d="M297.731 10.85H304.751V81.7673H297.731V10.85Z" fill="black"/>
<path d="M320.811 81.7673V10.85H322.325L369.056 65.1314V10.85H375.972V81.7673H374.364L328.111 28.1556V81.7673H320.811Z" fill="black"/>
<path d="M391.991 10.85H399.01V81.7673H391.991V10.85Z" fill="black"/>
</g>
<defs>
<linearGradient id="paint0_linear_36_378" x1="0" y1="32.121" x2="60.3861" y2="32.121" gradientUnits="userSpaceOnUse">
<stop stop-color="#019157"/>
<stop offset="1" stop-color="#016937"/>
</linearGradient>
<linearGradient id="paint1_linear_36_378" x1="0" y1="59.879" x2="60.3861" y2="59.879" gradientUnits="userSpaceOnUse">
<stop stop-color="#FBB219"/>
<stop offset="1" stop-color="#D66F27"/>
</linearGradient>
<clipPath id="clip0_36_378">
<rect width="399" height="92" fill="white"/>
</clipPath>
</defs>
</svg>
