<svg width="59" height="72" viewBox="0 0 59 72" fill="none" xmlns="http://www.w3.org/2000/svg">
<g clip-path="url(#clip0_32_339)">
<path d="M26.21 19.5018V17.8281C26.6849 17.8281 27.1715 17.7094 27.5277 17.5907C27.8838 17.472 28.2518 17.2346 28.6079 16.9972C28.8453 16.7598 29.0827 16.4036 29.332 16.0357C29.4507 15.6795 29.5694 15.1929 29.5694 14.718C29.5694 14.2432 29.4507 13.8752 29.332 13.5191C29.2133 13.163 28.9759 12.9256 28.7384 12.6763C28.501 12.4389 28.1449 12.2015 27.7769 12.0828C27.4208 11.8454 26.9341 11.7267 26.4593 11.608L25.9845 11.4893V9.57812C26.3406 9.69682 26.578 9.69683 26.8273 9.81553C27.0647 9.81553 27.3021 9.93423 27.5395 10.0529C27.6582 10.1716 27.8956 10.1716 28.0143 10.2903C28.1331 10.4091 28.2518 10.5278 28.2518 10.5278L29.332 8.61661C28.8571 8.3792 28.4892 8.14179 27.8956 7.90438C27.4208 7.78568 26.8154 7.54827 26.2219 7.54827V6.11194H25.2604V7.54827C24.7856 7.66697 24.2989 7.78568 23.9428 7.90438C23.4679 8.02309 23.1 8.2605 22.8626 8.49791C22.5064 8.73532 22.269 9.09143 22.1385 9.45941C22.0197 9.81553 21.901 10.3022 21.901 10.777C21.901 11.1332 21.901 11.3706 22.0197 11.6198C22.1385 11.8573 22.2572 12.0947 22.4946 12.3321C22.732 12.5695 22.9694 12.8069 23.3374 12.9256C23.6935 13.163 24.0496 13.2817 24.5363 13.4004L25.2604 13.6378L25.4978 15.7983C25.1417 15.7983 24.9043 15.6796 24.5363 15.5608C24.2989 15.4421 23.9428 15.3234 23.6935 15.2047C23.4561 15.086 23.2187 14.9673 23.1 14.8486C22.8626 14.7299 22.7438 14.6112 22.7438 14.6112L21.6636 16.6411C22.1385 16.9972 22.7438 17.2346 23.3374 17.4839C23.9309 17.6026 24.655 17.84 25.2485 17.84V19.5137H26.21V19.5018ZM25.2485 11.24C24.8924 11.1213 24.655 11.0026 24.5244 10.8839C24.4057 10.7652 24.287 10.5278 24.287 10.2903C24.287 9.81553 24.5244 9.44754 25.2485 9.44754V11.24ZM25.9726 13.8752C26.21 13.9939 26.5661 14.1126 26.8154 14.2314C26.9341 14.3501 27.0528 14.5875 27.0528 14.8249C27.0528 15.2997 26.6967 15.5371 25.9726 15.5371V13.8634V13.8752Z" fill="#2B9D68"/>
<path d="M56.9665 67.9691H40.8582L44.5499 54.5673H46.4373C47.2801 54.5673 47.9924 53.8432 48.1111 53.0123V45.4745C48.1111 44.6317 47.387 43.9195 46.556 43.9195H27.0528V36.6192H31.4805C33.8784 36.6192 36.1456 35.6576 37.8194 33.9839C39.4931 32.3102 40.4546 30.031 40.4546 27.6451C40.4546 26.8023 39.7424 26.09 38.8996 26.09H32.9169C30.7446 26.09 28.6672 26.8854 27.0528 28.2861V24.535C32.905 23.7634 37.4633 18.7303 37.4633 12.6764C37.4633 6.08827 32.0741 0.710938 25.4978 0.710938C18.9216 0.710938 13.5324 6.10014 13.5324 12.6764C13.5324 18.7303 18.0906 23.7634 23.9428 24.535V32.8087C22.364 31.4555 20.3104 30.6364 18.0788 30.6364H12.096C11.2532 30.6364 10.541 31.3487 10.541 32.1915C10.541 37.094 14.6126 41.1656 19.5151 41.1656H23.9428V43.9195H3.11007C2.26726 43.9195 1.55503 44.6317 1.55503 45.4745V53.0123C1.55503 53.8551 2.26726 54.5673 3.11007 54.5673H4.87877L8.57049 67.9691H1.55503C0.712229 67.9691 0 68.6813 0 69.5241C0 70.367 0.712229 71.0792 1.55503 71.0792H56.9665C57.6787 71.0792 58.4028 70.367 58.5215 69.5241C58.5215 68.6813 57.7974 67.9691 56.9665 67.9691ZM28.7266 30.8738C29.8068 29.6749 31.3618 29.0814 32.9169 29.0814H37.2258C36.9884 30.1616 36.383 31.1112 35.6708 31.8354C34.5906 33.0343 33.0356 33.6278 31.4805 33.6278H27.1715C27.409 32.5476 28.0143 31.7166 28.7266 30.8738ZM16.5118 12.6764C16.5118 7.77388 20.5834 3.7023 25.4859 3.7023C30.3884 3.7023 34.46 7.77388 34.46 12.6764C34.46 17.5789 30.3884 21.6505 25.4859 21.6505C20.5834 21.6505 16.5118 17.5789 16.5118 12.6764ZM19.5032 38.1742C16.7493 38.1742 14.482 36.263 13.7579 33.6278H18.0669C20.8208 33.6278 23.0881 35.5389 23.8122 38.1742H19.5032ZM4.5464 46.9109H45.001V51.4573H4.5464V46.9109ZM8.01258 54.5673H41.523L39.505 62.0932C39.3507 62.0339 39.1845 61.9864 39.0064 61.9864H15.0755C14.2327 61.9864 13.5205 62.6986 13.5205 63.5414C13.5205 64.3842 14.2327 65.0965 15.0755 65.0965H38.6978L37.9262 67.9691H11.6449L8.02445 54.5673H8.01258Z" fill="#2B9D68"/>
</g>
<defs>
<clipPath id="clip0_32_339">
<rect width="58.5215" height="70.3682" fill="white" transform="translate(0 0.710938)"/>
</clipPath>
</defs>
</svg>
