<svg width="77" height="72" viewBox="0 0 77 72" fill="none" xmlns="http://www.w3.org/2000/svg">
<g clip-path="url(#clip0_32_326)">
<path d="M58.3499 12.094C58.0961 11.9671 57.9692 11.9671 57.7154 11.8402C57.4615 11.7133 57.3346 11.7133 57.2077 11.5864C57.0808 11.5864 56.9539 11.4595 56.9539 11.4595L56.1925 12.995C56.5732 13.2488 56.9539 13.5026 57.4742 13.6295C57.8549 13.7564 58.3753 13.8833 58.8829 13.8833V15.165H59.6443V13.8833C60.025 13.8833 60.4057 13.8833 60.6722 13.7564C60.926 13.6295 61.1798 13.5026 61.4463 13.3757C61.5732 13.2488 61.827 12.995 61.9539 12.7412C62.0808 12.4874 62.2077 12.1067 62.2077 11.7133C62.2077 11.3199 62.2077 11.0788 62.0808 10.8123C62.0808 10.5585 61.827 10.4316 61.827 10.0509C61.5732 9.92395 61.3194 9.79705 61.0656 9.67015C60.6849 9.54324 60.4311 9.41634 60.0377 9.28944L59.657 9.16253V7.75391C59.9108 7.75391 60.0377 7.75391 60.2915 7.88082C60.4184 8.00772 60.6722 8.00772 60.7991 8.13462C60.926 8.26153 61.0529 8.38843 61.1798 8.38843L61.3067 8.51533L62.0681 7.10671C61.8143 6.97981 61.4336 6.726 61.0402 6.5991C60.6595 6.4722 60.2788 6.34529 59.7585 6.34529V5.31738H58.9971V6.34529C58.7433 6.34529 58.3626 6.4722 58.0961 6.5991C57.8423 6.726 57.5884 6.85291 57.322 7.10671C57.0555 7.36052 56.9412 7.61432 56.8143 7.86813C56.6874 8.24883 56.5605 8.50264 56.5605 8.89604C56.5605 9.14984 56.5605 9.40365 56.6874 9.67015C56.8143 9.79705 56.9412 10.0509 57.0682 10.1778C57.1951 10.3047 57.4489 10.4316 57.7027 10.5585C57.9565 10.6854 58.2103 10.8123 58.6037 10.9392L59.1113 10.8123V12.2209C58.8575 12.2209 58.6037 12.2209 58.3499 12.094ZM59.492 11.3326C59.7458 11.3326 59.9996 11.4595 60.1265 11.5864C60.2534 11.5864 60.3803 11.8402 60.3803 11.9671C60.3803 12.2209 60.1265 12.4747 59.6189 12.4747H59.492V11.3199V11.3326ZM58.4768 9.02294C58.3499 8.89604 58.3499 8.76914 58.3499 8.64223C58.3499 8.26153 58.6037 8.00772 59.1113 8.00772V9.28944C58.8575 9.16253 58.6037 9.03563 58.4768 9.03563V9.02294Z" fill="#2B9D68"/>
<path d="M28.7942 25.5332C28.2866 25.4063 27.8932 25.1525 27.5125 25.0256C27.1318 24.8987 26.878 24.6449 26.6115 24.518C26.3577 24.2642 26.1039 24.2642 26.1039 24.1373L24.5684 27.0814C25.3425 27.4621 26.2308 27.9824 27.1318 28.2362C28.0328 28.6169 28.9211 28.7438 29.949 28.8708V31.3073H31.3577V28.8708C31.9922 28.8708 32.6394 28.7438 33.2739 28.6169C33.9084 28.49 34.4287 28.2362 34.9363 27.8555C35.4439 27.4748 35.8373 26.9545 36.0911 26.4469C36.3449 25.8124 36.4718 25.1652 36.4718 24.4038C36.4718 23.7693 36.3449 23.1221 35.9642 22.8683C35.7104 22.3606 35.4566 21.9672 35.0632 21.5865C34.6825 21.2058 34.1622 20.952 33.6546 20.6855C33.147 20.4317 32.4998 20.3048 31.7384 20.051L31.1039 19.9241V17.1069C31.4846 17.1069 31.8653 17.2338 32.2587 17.3607C32.6394 17.4876 33.0201 17.6145 33.2866 17.7414C33.5404 17.8683 33.7942 17.9952 34.048 18.1221C34.3018 18.249 34.4287 18.3759 34.4287 18.3759L35.9642 15.5587C35.4566 15.1779 34.6825 14.9241 33.9211 14.5307C33.1597 14.15 32.2587 14.0231 31.3577 13.8962V11.7262H29.949V13.8962C29.1876 14.0231 28.6673 14.2769 28.0328 14.4038C27.3983 14.5307 26.878 14.9115 26.4973 15.3049C26.1166 15.6983 25.7359 16.2059 25.4694 16.7135C25.2156 17.2211 25.0887 17.8683 25.0887 18.6297C25.0887 19.1373 25.2156 19.6576 25.3425 20.0383C25.5963 20.5459 25.7232 20.7997 26.1039 21.1931C26.4846 21.5865 26.8653 21.8277 27.3856 22.0941C27.8932 22.348 28.5404 22.4749 29.1749 22.7287L30.2029 23.1094V25.9266C29.8221 25.7997 29.3018 25.6728 28.7942 25.5459V25.5332ZM31.2181 23.3632C31.7257 23.4901 32.1191 23.617 32.3729 23.8708C32.6267 24.1246 32.7536 24.3784 32.7536 24.7718C32.7536 25.4063 32.246 25.7997 31.2181 25.9266V23.3632ZM30.0633 19.3911C29.6826 19.2642 29.3018 19.1373 29.0353 18.7566C28.7815 18.6297 28.6546 18.3759 28.6546 17.9825C28.6546 17.348 29.0353 16.9546 30.0633 16.8277V19.3911Z" fill="#2B9D68"/>
<path d="M75.2279 45.368H67.2965V35.9011C67.2965 35.0001 66.5351 34.2387 65.6341 34.2387H42.6393C43.6292 33.2615 44.5302 32.1955 45.2916 31.0407C47.2078 28.2235 48.1088 24.8986 48.1088 21.5738C48.1088 11.8531 40.1774 3.92163 30.4567 3.92163C20.7359 3.92163 12.9314 11.8531 12.6776 21.5738C12.6776 24.8986 13.7055 28.2235 15.4948 31.0407C16.2562 32.2336 17.1573 33.2869 18.1344 34.2387H1.66244C0.761428 34.2387 1.14441e-05 35.0128 1.14441e-05 35.9011V47.0305C1.14441e-05 47.9315 0.761428 48.6929 1.66244 48.6929H9.59386V56.4974H1.66244C0.761428 56.4974 1.14441e-05 57.2588 1.14441e-05 58.1598V69.4161C1.14441e-05 70.3171 0.761428 71.0785 1.66244 71.0785H65.6341C66.5351 71.0785 67.2965 70.3171 67.2965 69.4161V59.9492H75.2279C76.1289 59.9492 76.8904 59.1878 76.8904 58.2867V47.0305C76.8904 46.1295 76.1163 45.368 75.2279 45.368ZM66.2432 56.6243C66.0529 56.5482 65.8498 56.4974 65.6341 56.4974H64.0986V48.6929H67.1696V56.6243H66.2432ZM9.72076 45.495V37.4366H12.7918V45.495H9.72076ZM16.1167 37.4366H19.1877V45.495H16.1167V37.4366ZM25.5836 37.4366V45.495H22.5126V37.4366H25.5836ZM31.9922 37.4366V45.495H28.9211V37.4366H31.9922ZM38.3881 37.4366V45.495H35.317V37.4366H38.3881ZM44.784 37.4366V45.495H41.7129V37.4366H44.784ZM57.7027 56.4974V48.6929H60.7737V56.4974H57.7027ZM51.3068 56.4974V48.6929H54.3778V56.4974H51.3068ZM44.9109 56.4974V48.6929H47.9819V56.4974H44.9109ZM38.515 56.4974V48.6929H41.586V56.4974H38.515ZM32.1191 56.4974V48.6929H35.1901V56.4974H32.1191ZM28.7942 48.6929V56.4974H25.7232V48.6929H28.7942ZM54.5047 45.495V37.4366H57.5758V45.495H54.5047ZM51.1799 45.495H48.1088V37.4366H51.1799V45.495ZM22.3856 48.6929V56.4974H19.3146V48.6929H22.3856ZM12.7918 59.8223V67.8806H9.72076V59.8223H12.7918ZM16.1167 59.8223H19.1877V67.8806H16.1167V59.8223ZM22.5126 59.8223H25.5836V67.8806H22.5126V59.8223ZM28.9211 59.8223H31.9922V67.8806H28.9211V59.8223ZM35.317 59.8223H38.3881V67.8806H35.317V59.8223ZM41.7129 59.8223H44.784V67.8806H41.7129V59.8223ZM48.1088 59.8223H51.1799V67.8806H48.1088V59.8223ZM54.5047 59.8223H57.5758V67.8806H54.5047V59.8223ZM64.0986 45.495H60.9006V37.4366H64.0986V45.495ZM30.4567 7.10689C38.515 7.10689 44.9109 13.6297 44.9109 21.5611C44.9109 26.891 42.0048 31.726 37.2967 34.226H23.6166C18.8958 31.7133 16.0024 26.891 16.0024 21.5611C16.0024 13.5028 22.3983 7.10689 30.4567 7.10689ZM3.32486 37.4366H6.39591V45.495H3.32486V37.4366ZM12.9187 48.6929H15.9898V56.4974H12.9187V48.6929ZM3.32486 59.8223H6.39591V67.8806H3.32486V59.8223ZM64.0986 67.8806H60.9006V59.8223H64.0986V67.8806ZM73.6924 56.6243H70.4945V48.6929H73.6924V56.6243Z" fill="#2B9D68"/>
<path d="M59.2382 19.8986C64.4793 19.8986 68.832 15.5459 68.832 10.3048C68.832 5.0637 64.4793 0.710938 59.2382 0.710938C53.9971 0.710938 49.6443 5.0637 49.6443 10.3048C49.6443 15.5459 53.9971 19.8986 59.2382 19.8986ZM59.2382 3.90889C62.8168 3.90889 65.6341 6.72612 65.6341 10.3048C65.6341 13.8834 62.8168 16.7007 59.2382 16.7007C55.6595 16.7007 52.8423 13.8834 52.8423 10.3048C52.8423 6.72612 55.6595 3.90889 59.2382 3.90889Z" fill="#2B9D68"/>
</g>
<defs>
<clipPath id="clip0_32_326">
<rect width="76.8904" height="70.3675" fill="white" transform="translate(0 0.710938)"/>
</clipPath>
</defs>
</svg>
