<svg width="149" height="149" viewBox="0 0 149 149" fill="none" xmlns="http://www.w3.org/2000/svg">
<g filter="url(#filter0_d_32_316)">
<rect x="6" y="6" width="129" height="129" rx="10" fill="white"/>
</g>
<g clip-path="url(#clip0_32_316)">
<path d="M112.39 70.3C109.37 67.82 104.6 67.6 101.48 70.96L93.71 79.3C92.71 76.08 89.69 73.73 86.14 73.73H72.28C71.23 73.73 70.88 73.32 69.05 71.92C62.08 65.85 51.62 65.87 44.67 71.98L39.57 76.46C37.28 75.25 34.6 75.22 32.31 76.37L26.46 79.29C25.16 79.94 24.62 81.53 25.28 82.84L41.13 114.55C41.79 115.85 43.37 116.38 44.68 115.73L50.52 112.81C53.4 111.37 55 108.43 54.9 105.44H86.13C91.92 105.44 97.45 102.68 100.93 98.04L113.62 81.12C116.08 77.84 115.69 73.03 112.39 70.31M48.16 108.07L44.68 109.81L31.19 82.83L34.67 81.09C35.98 80.44 37.56 80.97 38.21 82.27L49.34 104.53C49.99 105.84 49.46 107.42 48.16 108.08M109.39 77.94L96.7 94.86C94.22 98.17 90.27 100.15 86.13 100.15H53.06L43.16 80.34L48.16 75.94C53.14 71.56 60.64 71.56 65.62 75.94C68.55 78.52 70.37 79.01 72.27 79.01H86.13C87.59 79.01 88.77 80.2 88.77 81.65C88.77 83.1 87.58 84.3 86.13 84.3H72.63C71.17 84.3 69.98 85.49 69.98 86.94C69.98 88.39 71.16 89.59 72.63 89.59H87.89C90.09 89.59 92.2 88.67 93.69 87.06L105.33 74.57C106.39 73.43 108.03 73.52 109.03 74.4C110.08 75.32 110.19 76.88 109.38 77.95" fill="#2B9D68"/>
<path d="M77.84 43.03C79.65 41.13 80.77 38.57 80.77 35.74C80.77 29.92 76.07 24.99 70.2 24.99C64.33 24.99 59.45 29.91 59.45 35.74C59.45 38.48 60.52 41.06 62.47 43.05C57.64 45.76 54.16 50.96 54.16 57.06V59.7C54.16 61.16 55.34 62.34 56.8 62.34H83.4C84.86 62.34 86.05 61.16 86.05 59.7V57.06C86.05 51.08 82.76 45.8 77.84 43.03ZM70.19 30.29C73.05 30.29 75.48 32.79 75.48 35.75C75.48 38.71 73.1 41.04 70.19 41.04C67.28 41.04 64.73 38.62 64.73 35.75C64.73 32.88 67.28 30.29 70.19 30.29ZM59.45 57.07C59.45 51.24 64.37 46.32 70.2 46.32C76.03 46.32 80.77 51.14 80.77 57.07H59.45Z" fill="#2B9D68"/>
</g>
<defs>
<filter id="filter0_d_32_316" x="0" y="0" width="149" height="149" filterUnits="userSpaceOnUse" color-interpolation-filters="sRGB">
<feFlood flood-opacity="0" result="BackgroundImageFix"/>
<feColorMatrix in="SourceAlpha" type="matrix" values="0 0 0 0 0 0 0 0 0 0 0 0 0 0 0 0 0 0 127 0" result="hardAlpha"/>
<feOffset dx="4" dy="4"/>
<feGaussianBlur stdDeviation="5"/>
<feComposite in2="hardAlpha" operator="out"/>
<feColorMatrix type="matrix" values="0 0 0 0 0 0 0 0 0 0 0 0 0 0 0 0 0 0 0.15 0"/>
<feBlend mode="normal" in2="BackgroundImageFix" result="effect1_dropShadow_32_316"/>
<feBlend mode="normal" in="SourceGraphic" in2="effect1_dropShadow_32_316" result="shape"/>
</filter>
<clipPath id="clip0_32_316">
<rect width="90.21" height="91" fill="white" transform="translate(25 25)"/>
</clipPath>
</defs>
</svg>
