<svg width="72" height="72" viewBox="0 0 72 72" fill="none" xmlns="http://www.w3.org/2000/svg">
<g clip-path="url(#clip0_32_331)">
<path d="M65.5845 29.7936C65.4658 29.6748 65.2283 29.5561 64.9909 29.4374C64.7535 29.3187 64.5161 29.3187 64.1481 29.2L63.9107 29.0813V27.8824C64.0294 27.8824 64.2668 28.0011 64.3855 28.0011C64.623 28.1198 64.7417 28.1198 64.8604 28.2385C64.9791 28.2385 65.0978 28.3572 65.2165 28.3572L65.3352 28.4759L65.9287 27.277C65.6913 27.0396 65.4539 26.9209 65.0859 26.8022C64.7298 26.6835 64.3737 26.5648 64.0057 26.5648V25.6033H63.4122V26.5648C63.056 26.6835 62.8186 26.6835 62.5694 26.8022C62.3319 26.8022 62.2132 27.0396 61.9758 27.1583C61.7384 27.277 61.6197 27.5144 61.501 27.7518C61.3823 27.9892 61.3823 28.2266 61.3823 28.5946C61.3823 28.832 61.3823 29.0695 61.501 29.3069C61.6197 29.5443 61.7384 29.663 61.8571 29.7817C61.9758 29.9004 62.0945 30.0191 62.3319 30.1378C62.4506 30.1378 62.8068 30.2565 63.056 30.3752L63.5309 30.4939V31.6928C63.2935 31.6928 63.1748 31.6928 62.9373 31.5741C62.6999 31.4554 62.4625 31.4554 62.3438 31.3367C62.1064 31.218 61.9877 31.218 61.9877 31.0993C61.869 31.0993 61.7503 30.9806 61.7503 30.9806L61.1568 32.2982C61.5129 32.4169 61.869 32.6543 62.237 32.773C62.5931 32.8917 63.0798 33.0105 63.4359 33.0105V34.0907H64.0294V33.0105C64.2668 33.0105 64.623 33.0105 64.7417 32.773C64.9791 32.6543 65.2165 32.5356 65.4658 32.4169C65.7032 32.2982 65.8219 32.0608 65.9406 31.8234C66.0593 31.586 66.0593 31.3486 66.0593 30.9806C66.0593 30.7432 66.0593 30.5058 65.9406 30.2684C65.9406 30.1497 65.7032 29.9123 65.5845 29.7936ZM63.4359 28.9507C63.1985 28.832 63.0798 28.832 62.9611 28.7133C62.8424 28.5946 62.8424 28.4759 62.8424 28.3572C62.8424 28.1198 63.0798 27.8824 63.4359 27.8824V28.9626V28.9507ZM63.9107 31.7047V30.6245C64.1481 30.7432 64.2668 30.7432 64.3855 30.8619C64.5042 30.9806 64.6229 31.0993 64.6229 31.218C64.6229 31.5741 64.3855 31.6928 63.9107 31.6928V31.7047Z" fill="#2B9D68"/>
<path d="M10.1731 41.8777C10.0543 41.759 9.81694 41.6403 9.57953 41.5215C9.34212 41.4028 9.10471 41.4028 8.73672 41.2841L8.49931 41.1654V39.9665C8.61802 39.9665 8.85543 40.0852 8.97413 40.0852C9.21154 40.2039 9.33025 40.2039 9.44895 40.3226C9.56766 40.3226 9.68636 40.4413 9.80507 40.4413L9.92377 40.56L10.5173 39.3611C10.2799 39.1237 10.0425 39.005 9.67449 38.8863C9.31838 38.7676 8.96226 38.6489 8.59428 38.6489V37.6874H8.00075V38.6489C7.64464 38.7676 7.40723 38.7676 7.15795 38.8863C6.92054 38.8863 6.80183 39.1237 6.56442 39.2424C6.32701 39.3611 6.20831 39.5985 6.0896 39.8359C5.9709 40.0733 5.9709 40.3108 5.9709 40.6787C5.9709 40.9161 5.9709 41.1536 6.0896 41.2723C6.20831 41.5097 6.32701 41.6284 6.44572 41.7471C6.56442 41.8658 6.68313 41.9845 6.92054 42.1032C7.03924 42.1032 7.39536 42.2219 7.63277 42.3406L8.10759 42.4593V43.6582C7.87018 43.6582 7.75147 43.5395 7.51406 43.5395C7.27665 43.4208 7.03924 43.4208 6.92054 43.3021C6.80183 43.1834 6.68313 43.1834 6.56442 43.0647C6.44572 43.0647 6.32701 42.946 6.32701 42.946L5.73349 44.2636C6.0896 44.3823 6.45759 44.6197 6.8137 44.7384C7.16982 44.8572 7.65651 44.9759 8.01262 44.9759V46.0561H8.60615V44.9759C8.96226 44.9759 9.19967 44.9759 9.19967 44.8572C9.43708 44.7384 9.67449 44.6197 9.92377 44.501C10.1612 44.3823 10.2799 44.1449 10.3986 43.9075C10.5173 43.6701 10.636 43.4327 10.636 43.0647C10.636 42.8273 10.636 42.5899 10.5173 42.3406C10.5173 42.2219 10.2799 41.9845 10.1612 41.8658L10.1731 41.8777ZM8.1432 40.928C7.90579 40.8093 7.78708 40.8093 7.66838 40.6906C7.54967 40.5719 7.54967 40.4532 7.54967 40.3345C7.54967 40.0971 7.66838 39.8597 8.1432 39.8597V40.9399V40.928ZM8.61802 43.682V42.6018C8.85543 42.7205 8.97413 42.7205 9.09284 42.8392C9.21154 42.9579 9.33025 43.0766 9.33025 43.1953C9.33025 43.5514 9.09284 43.6701 8.61802 43.6701V43.682Z" fill="#2B9D68"/>
<path d="M42.6032 22.0184V17.2346C42.6032 16.3918 41.8791 15.6796 41.0482 15.6796H29.5575C28.7147 15.6796 28.0025 16.4037 28.0025 17.2346V22.0184C28.0025 25.9713 31.2313 29.2 35.1841 29.2C39.137 29.2 42.4845 25.8526 42.6032 22.0184ZM30.9939 21.8997V18.6709H39.3744V21.8997C39.3744 24.1788 37.4633 26.09 35.1841 26.09C32.905 26.09 30.9939 24.2975 30.9939 21.8997Z" fill="#2B9D68"/>
<path d="M42.2471 49.7835C42.2471 46.4123 39.8849 43.5752 36.7392 42.8155V35.0641C36.7392 34.2213 36.0151 33.509 35.1841 33.509C34.3532 33.509 33.6291 34.2331 33.6291 35.0641V42.7443C30.3647 43.409 27.8838 46.3173 27.8838 49.7835V54.5673C27.8838 55.4101 28.596 56.1223 29.4388 56.1223H40.9295C41.7723 56.1223 42.4845 55.4101 42.2471 54.5673V49.7835ZM39.4931 53.1309H31.1126V49.7835C31.1126 47.5162 32.905 45.5932 35.3028 45.5932C37.7007 45.5932 39.4931 47.3856 39.4931 49.7835V53.1309Z" fill="#2B9D68"/>
<path d="M58.5215 60.4314H53.9751V52.2882C53.9751 48.2167 52.6575 44.2757 50.2715 41.035C48.5978 38.8746 46.5679 37.0821 44.1701 35.7645C46.5679 34.4469 48.5978 32.6544 50.2715 30.494C52.6694 27.2652 53.9751 23.3124 53.9751 19.2408V11.2282H58.4028C59.2456 11.2282 59.9578 10.5041 60.1953 9.67319V5.12679C60.1953 4.65197 59.8391 4.16528 59.483 3.92787L54.9366 0.936506C54.6992 0.817802 54.3431 0.699097 54.0938 0.699097H16.6306C16.2745 0.699097 16.037 0.817802 15.7878 0.936506L11.2414 3.92787C10.7666 4.16528 10.5291 4.6401 10.5291 5.12679V9.67319C10.5291 10.516 11.2414 11.2282 12.0842 11.2282H16.5119V19.2408C16.5119 23.3124 17.8295 27.2534 20.2155 30.494C21.8892 32.6544 23.9309 34.4469 26.3169 35.7645C23.9191 37.0821 21.8892 38.8746 20.2155 41.035C17.8176 44.2638 16.5119 48.2167 16.5119 52.2882V60.4314H12.0842C11.2414 60.4314 10.5291 61.1436 10.5291 61.9864V66.5328C10.5291 67.0076 10.8853 67.4943 11.2414 67.7317L15.6691 70.8418C15.9065 70.9605 16.2626 71.0792 16.5119 71.0792H52.4201C52.6575 71.0792 52.8949 70.9605 53.2629 70.8418L59.2456 67.8504C59.7204 67.613 60.0884 67.1263 60.0884 66.5328V61.9864C60.0884 61.1436 59.3643 60.4314 58.5334 60.4314H58.5215ZM13.5205 5.98146L16.9867 3.82103H53.4884L56.9546 6.10017V8.2606H13.5205V5.98146ZM19.6219 52.2882C19.6219 45.2253 24.0496 39.2426 30.7565 37.2127C31.35 36.9753 31.8367 36.3699 31.8367 35.7764C31.8367 35.0642 31.3618 34.5775 30.7565 34.3401C24.0496 32.3102 19.6219 26.1969 19.6219 19.2645V11.252H50.8532V19.2645C50.8532 26.3275 46.4255 32.3102 39.7187 34.3401C39.1251 34.5775 38.6385 35.0642 38.6385 35.7764C38.6385 36.4886 39.1133 36.9753 39.7187 37.2127C46.4255 39.2426 50.8532 45.3559 50.8532 52.2882V60.4314H19.6219V52.2882ZM56.8478 65.7019L52.064 68.0997H16.9986L13.5324 65.8325V63.672H56.8597V65.7019H56.8478Z" fill="#2B9D68"/>
<path d="M16.5119 41.8777C16.5119 37.3313 12.7964 33.6158 8.25002 33.6158C3.70362 33.6158 -0.0118408 37.3194 -0.0118408 41.8777C-0.0118408 46.436 3.69175 50.1396 8.25002 50.1396C12.8083 50.1396 16.5119 46.4241 16.5119 41.8777ZM8.26189 47.1482C5.38923 47.1482 2.99139 44.7504 2.99139 41.8777C2.99139 39.005 5.38923 36.6072 8.26189 36.6072C11.1345 36.6072 13.5324 39.005 13.5324 41.8777C13.5324 44.7504 11.1345 47.1482 8.26189 47.1482Z" fill="#2B9D68"/>
<path d="M63.6733 21.6504C59.1269 21.6504 55.4114 25.354 55.4114 29.9122C55.4114 34.4705 59.1269 38.1741 63.6733 38.1741C68.2197 38.1741 71.9352 34.4586 71.9352 29.9122C71.9352 25.3659 68.2197 21.6504 63.6733 21.6504ZM63.6733 35.1827C60.8006 35.1827 58.4028 32.7849 58.4028 29.9122C58.4028 27.0396 60.8006 24.6418 63.6733 24.6418C66.546 24.6418 68.9438 27.0396 68.9438 29.9122C68.9438 32.7849 66.546 35.1827 63.6733 35.1827Z" fill="#2B9D68"/>
</g>
<defs>
<clipPath id="clip0_32_331">
<rect width="71.9233" height="70.3682" fill="white" transform="translate(0 0.710938)"/>
</clipPath>
</defs>
</svg>
